HIERARCHY
ROOT hip
{
	OFFSET 0.000000 0.000000 0.000000 
	CHANNELS 6 Xposition Yposition Zposition Xrotation Zrotation Yrotation
	JOINT abdomen
	{
		OFFSET 0.000000 3.402643 0.000000 
		CHANNELS 3 Xrotation Zrotation Yrotation
		JOINT chest
		{
			OFFSET 0.000000 8.438565 -0.680529 
			CHANNELS 3 Xrotation Zrotation Yrotation
			JOINT neck
			{
				OFFSET 0.000000 10.207942 -0.272212 
				CHANNELS 3 Xrotation Zrotation Yrotation
				JOINT head
				{
					OFFSET 0.000000 3.130431 0.000000 
					CHANNELS 3 Xrotation Zrotation Yrotation
					End Site
					{
						OFFSET 0.000000 3.130435 0.000000 
					}
				}
			}
			JOINT lCollar
			{
				OFFSET 3.470700 6.669187 -0.816635 
				CHANNELS 3 Yrotation Zrotation Xrotation
				JOINT lShldr
				{
					OFFSET 3.198488 0.000000 0.000000 
					CHANNELS 3 Zrotation Yrotation Xrotation
					JOINT lForeArm
					{
						OFFSET 10.139888 0.000000 0.000000 
						CHANNELS 3 Yrotation Zrotation Xrotation
						JOINT lHand
						{
							OFFSET 8.370511 0.000000 0.000000 
							CHANNELS 3 Zrotation Yrotation Xrotation
							End Site
							{
								OFFSET 4.083176 0.000000 0.000000 
							}
						}
					}
				}
			}
			JOINT rCollar
			{
				OFFSET -3.470700 6.669187 -0.816635 
				CHANNELS 3 Yrotation Zrotation Xrotation
				JOINT rShldr
				{
					OFFSET -3.198488 0.000000 0.000000 
					CHANNELS 3 Zrotation Yrotation Xrotation
					JOINT rForeArm
					{
						OFFSET -10.139888 0.000000 0.000000 
						CHANNELS 3 Yrotation Zrotation Xrotation
						JOINT rHand
						{
							OFFSET -8.370511 0.000000 0.000000 
							CHANNELS 3 Zrotation Yrotation Xrotation
							End Site
							{
								OFFSET -4.083176 0.000000 0.000000 
							}
						}
					}
				}
			}
		}
	}
	JOINT lThigh
	{
		OFFSET 5.308129 -1.633274 1.361059 
		CHANNELS 3 Xrotation Zrotation Yrotation
		JOINT lShin
		{
			OFFSET -2.041588 -20.007561 0.000000 
			CHANNELS 3 Xrotation Zrotation Yrotation
			JOINT lFoot
			{
				OFFSET 0.000000 -19.190928 -1.224953 
				CHANNELS 3 Xrotation Yrotation Zrotation
				End Site
				{
					OFFSET 0.000000 -2.449906 4.627600 
				}
			}
		}
	}
	JOINT rThigh
	{
		OFFSET -5.308129 -1.633274 1.361059 
		CHANNELS 3 Xrotation Zrotation Yrotation
		JOINT rShin
		{
			OFFSET 2.041588 -20.007561 0.000000 
			CHANNELS 3 Xrotation Zrotation Yrotation
			JOINT rFoot
			{
				OFFSET 0.000000 -19.190928 -1.224953 
				CHANNELS 3 Xrotation Yrotation Zrotation
				End Site
				{
					OFFSET 0.000000 -2.449906 4.627600 
				}
			}
		}
	}
}
MOTION
Frames: 20
Frame Time: 0.016667
0.756545 43.808830 -3.159761 -1.390300 -4.110120 -20.535400 -14.979300 0.620790 0.659022 16.434999 0.954557 0.292555 4.845810 -7.045390 3.063560 9.250140 0.621227 1.923650 2.000000 -2.000000 0.000000 -89.372597 10.666400 -153.567001 118.897003 -0.144062 0.138045 0.066107 -0.060160 -158.942993 -2.000000 2.000000 0.000000 87.227501 0.228108 -130.526993 -122.616997 0.146417 0.097176 1.581840 -0.796567 -137.255005 -11.479394 4.726507 6.049394 37.329842 2.813461 2.609204 -26.187283 12.790021 7.254404 -8.421520 2.258995 13.655048 22.037369 -3.375484 -1.561216 -13.689299 -5.500414 -1.128021 
0.755399 43.808189 -3.185160 -1.439270 -4.119800 -20.267900 -14.881500 0.650955 0.711961 16.591299 0.935256 0.325805 4.530820 -6.850690 3.256690 9.133320 0.738304 2.010970 2.000000 -2.000000 0.000000 -89.459801 10.110700 -153.115997 119.033997 -0.143756 0.137876 0.066045 -0.060008 -158.884995 -2.000000 2.000000 0.000000 87.295700 0.208396 -130.410004 -123.056999 0.145599 0.096648 1.581570 -0.796314 -137.235992 -11.569736 4.723310 5.895886 37.389629 2.809071 2.626366 -26.103916 12.764375 7.213761 -8.371655 2.257192 13.533050 22.025633 -3.385499 -1.553443 -13.776299 -5.569602 -1.169229 
0.755396 43.804718 -3.221165 -1.478450 -4.129490 -19.971901 -14.764000 0.684588 0.774198 16.747499 0.925685 0.358301 4.321900 -6.790440 3.313270 9.065080 0.777435 2.023290 2.000000 -2.000000 0.000000 -89.488297 9.516050 -152.606995 119.190002 -0.143407 0.137681 0.065984 -0.059855 -158.826004 -2.000000 2.000000 0.000000 87.462303 0.365191 -130.761002 -123.417999 0.144929 0.096209 1.572910 -0.814192 -136.444000 -11.636353 4.719318 5.770704 37.439232 2.804863 2.633963 -25.994699 12.687751 7.120484 -8.284985 2.249386 13.453732 22.016193 -3.387991 -1.573497 -13.887035 -5.668225 -1.195103 
0.763596 43.800720 -3.258742 -1.507910 -4.178250 -19.656000 -14.734500 0.711225 0.817621 16.747601 0.857477 0.382373 4.333070 -6.763320 3.285680 9.074880 0.787131 2.004760 2.000000 -2.000000 0.000000 -89.477798 9.116760 -152.089005 119.375000 -0.142993 0.137449 0.065974 -0.059830 -158.815994 -2.000000 2.000000 0.000000 87.588699 0.374472 -130.449005 -123.662003 0.144478 0.095910 1.583060 -0.797705 -137.343002 -11.679179 4.734589 5.586026 37.466969 2.818209 2.618412 -25.917589 12.579131 7.046680 -8.263086 2.293043 13.396368 22.004705 -3.393516 -1.555172 -14.008694 -5.840384 -1.259584 
0.778541 43.796989 -3.288579 -1.517820 -4.236800 -19.370600 -14.685600 0.746504 0.828800 16.816000 0.808820 0.396346 4.271600 -6.654330 3.326520 9.065340 0.855256 2.030180 2.000000 -2.000000 0.000000 -89.555298 8.746530 -151.677994 119.531998 -0.142646 0.137253 0.065974 -0.059830 -158.815994 -2.000000 2.000000 0.000000 87.647102 0.384101 -130.360992 -124.042999 0.143777 0.095440 1.582650 -0.797326 -137.313995 -11.776110 4.762240 5.333737 37.527718 2.798646 2.630420 -25.855370 12.471320 6.954075 -8.207824 2.335194 13.313295 21.956179 -3.390366 -1.564792 -14.135756 -5.962611 -1.331735 
0.794972 43.795574 -3.318438 -1.537370 -4.217240 -19.125500 -14.519700 0.765711 0.825057 17.079700 0.799308 0.400661 4.282660 -6.675200 3.305020 9.104470 0.874578 2.012970 2.000000 -2.000000 0.000000 -89.662102 8.161410 -151.285995 119.649002 -0.142385 0.137105 0.065974 -0.059830 -158.815994 -2.000000 2.000000 0.000000 87.695801 0.569497 -130.263000 -124.444000 0.143044 0.094941 1.582520 -0.797200 -137.304001 -11.847194 4.707065 5.161340 37.527477 2.796378 2.619948 -25.793833 12.420808 6.911484 -8.232301 2.307498 13.184750 21.983788 -3.404194 -1.567043 -14.226604 -6.053032 -1.362934 
0.816418 43.794418 -3.344433 -1.635060 -4.109660 -18.945601 -14.529100 0.741594 0.871357 16.982100 0.769984 0.420656 4.665050 -6.868340 3.129810 9.289800 0.805867 1.931380 2.000000 -2.000000 0.000000 -89.739601 7.830380 -150.807007 119.805000 -0.142038 0.136907 0.065964 -0.059805 -158.806000 -2.000000 2.000000 0.000000 87.812798 0.471691 -130.164993 -124.805000 0.142385 0.094486 1.581840 -0.796567 -137.255005 -11.879295 4.503905 5.023783 37.527832 2.796887 2.629908 -25.717556 12.499477 6.906602 -8.246445 2.153358 13.088395 22.111979 -3.402997 -1.555870 -14.324990 -6.122275 -1.394713 
0.846720 43.791069 -3.366194 -1.781670 -3.992220 -18.811800 -14.470100 0.653993 0.914420 16.982201 0.662771 0.437118 4.816540 -7.065020 3.063920 9.387210 0.727756 1.905900 2.000000 -2.000000 0.000000 -89.758499 7.421180 -150.347000 119.960999 -0.141692 0.136708 0.065933 -0.059728 -158.776993 -2.000000 2.000000 0.000000 87.998100 0.481231 -130.018997 -125.108002 0.141835 0.094102 1.583300 -0.802180 -137.138000 -11.792046 4.271770 4.903035 37.488396 2.795177 2.620270 -25.714939 12.550464 6.929557 -8.204129 1.977279 13.017577 22.245972 -3.435175 -1.569757 -14.407896 -6.150592 -1.415457 
0.881540 43.786182 -3.392941 -1.869550 -3.894420 -18.720900 -14.352500 0.691032 0.985735 17.099300 0.721341 0.464237 4.594640 -7.077850 3.185230 9.318940 0.757150 1.946810 2.000000 -2.000000 0.000000 -89.923798 6.953440 -149.858002 120.117996 -0.141346 0.136508 0.065913 -0.059678 -158.757996 -2.000000 2.000000 0.000000 88.017403 0.529880 -129.901001 -125.469002 0.141182 0.093639 1.573330 -0.806208 -136.903000 -11.800463 4.089800 4.753900 37.509300 2.786525 2.636466 -25.747652 12.505022 6.914759 -8.234715 1.842968 13.056228 22.395376 -3.429378 -1.577626 -14.541241 -6.188279 -1.433295 
0.920541 43.777554 -3.449413 -1.791100 -3.826260 -18.484200 -14.401400 0.661764 0.962907 17.001699 0.662785 0.456875 4.330720 -6.914120 3.342020 9.202040 0.845065 2.011800 2.000000 -2.000000 0.000000 -89.962196 6.632140 -149.388000 120.332001 -0.140871 0.136231 0.065964 -0.059805 -158.806000 -2.000000 2.000000 0.000000 88.124397 0.422100 -129.667007 -125.907997 0.140391 0.093071 1.573490 -0.810561 -136.697998 -12.037940 4.001608 4.541057 37.529587 2.775117 2.632917 -25.692593 12.353839 6.815752 -8.400913 1.773494 13.012681 22.494373 -3.427763 -1.576352 -14.693381 -6.300382 -1.502267 
0.963261 43.760448 -3.559270 -1.468000 -3.758540 -17.960600 -14.510000 0.640330 0.767282 16.845400 0.672415 0.366545 4.208200 -6.927730 3.437030 9.163040 0.864650 2.052050 2.000000 -2.000000 0.000000 -90.069000 6.252160 -148.957993 120.567001 -0.140355 0.135927 0.066045 -0.060008 -158.884995 -2.000000 2.000000 0.000000 88.182404 0.470468 -129.363998 -126.328003 0.139639 0.092523 1.572520 -0.809642 -136.630005 -12.610957 4.020783 4.179181 37.484360 2.733986 2.649571 -25.372208 12.129683 6.665843 -8.787313 1.769150 12.762014 22.433334 -3.379772 -1.597639 -14.754826 -6.495804 -1.610733 
1.016969 43.750145 -3.609439 -1.399530 -3.778170 -17.808399 -14.461300 0.624087 0.751704 16.874800 0.555492 0.364648 4.098480 -7.099280 3.490030 9.143310 0.806358 2.056270 2.000000 -2.000000 0.000000 -90.175697 5.813660 -148.487000 120.762001 -0.139925 0.135673 0.066168 -0.060312 -159.001999 -2.000000 2.000000 0.000000 88.250298 0.597009 -129.091003 -126.767998 0.138857 0.091943 1.573610 -0.814857 -136.492996 -12.816821 4.037467 4.117238 37.554131 2.726141 2.665222 -25.285549 12.021622 6.581060 -8.954503 1.767709 12.648878 22.553934 -3.367518 -1.603884 -14.834457 -6.496964 -1.650529 
1.082327 43.743324 -3.654476 -1.448160 -3.592610 -17.751200 -14.382800 0.568266 0.796533 16.904200 0.506781 0.377808 3.918730 -7.317760 3.574500 9.094250 0.738430 2.078820 2.000000 -2.000000 0.000000 -90.311699 5.326470 -147.949005 120.938004 -0.139539 0.135442 0.066323 -0.060692 -159.147995 -2.000000 2.000000 0.000000 88.230400 0.626012 -128.895004 -127.265999 0.137976 0.091279 1.572150 -0.817611 -136.179993 -12.899600 3.796420 4.170977 37.565212 2.711145 2.670025 -25.247742 11.967397 6.539276 -9.180483 1.547375 12.633412 22.868015 -3.382875 -1.613422 -14.950576 -6.447624 -1.641683 
1.157645 43.738701 -3.706353 -1.574830 -3.270250 -17.761801 -14.275000 0.496921 0.855231 16.933399 0.536036 0.395747 3.716150 -7.426310 3.708950 9.045360 0.719131 2.125310 2.000000 -2.000000 0.000000 -90.496399 4.761150 -147.410995 121.153000 -0.139069 0.135159 0.066510 -0.061147 -159.324005 -2.000000 2.000000 0.000000 88.171501 0.782058 -128.757996 -127.705002 0.137203 0.090686 1.563110 -0.826560 -135.819000 -12.968046 3.384565 4.310496 37.507030 2.702433 2.668123 -25.107498 12.009906 6.536541 -9.314445 1.150360 12.720191 23.071115 -3.412544 -1.617250 -14.978232 -6.460747 -1.639769 
1.231901 43.742683 -3.738370 -1.594140 -3.104270 -17.677500 -14.108800 0.453113 0.876738 17.138599 0.477664 0.401159 3.572890 -7.515800 3.831170 9.016030 0.709495 2.172920 2.000000 -2.000000 0.000000 -90.671402 4.166620 -146.824005 121.358002 -0.138621 0.134887 0.066667 -0.061526 -159.470993 -2.000000 2.000000 0.000000 88.190903 1.055330 -128.651001 -128.067001 0.136571 0.090195 1.554780 -0.836151 -135.516006 -12.998362 3.169411 4.399672 37.409576 2.695837 2.667541 -24.912426 12.043098 6.484620 -9.418793 0.915376 12.668674 23.149323 -3.420766 -1.627807 -14.930870 -6.526454 -1.649888 
1.303955 43.750664 -3.744998 -1.623510 -3.123750 -17.440901 -13.904000 0.426592 0.833769 17.392500 0.360777 0.390213 3.529640 -7.741990 3.926830 9.035320 0.631608 2.205370 2.000000 -2.000000 0.000000 -90.846298 3.620970 -146.207993 121.495003 -0.138322 0.134705 0.066562 -0.061273 -159.373001 -2.000000 2.000000 0.000000 88.200500 1.231010 -128.582001 -128.477005 0.135858 0.089632 1.563140 -0.838813 -135.223007 -13.009766 3.101138 4.354810 37.370502 2.688318 2.656076 -24.730448 12.042170 6.434207 -9.388760 0.812558 12.420230 23.196484 -3.433559 -1.620167 -14.921352 -6.461847 -1.658383 
1.379536 43.750401 -3.766757 -1.731100 -3.133340 -17.190599 -13.836000 0.306995 0.763457 17.314400 0.107250 0.365018 3.603720 -7.870100 4.018930 9.093770 0.582794 2.250520 2.000000 -2.000000 0.000000 -90.923500 3.280430 -145.572006 121.601997 -0.138088 0.134561 0.066292 -0.060616 -159.119003 -2.000000 2.000000 0.000000 88.307800 1.191810 -128.483994 -128.858002 0.135199 0.089105 1.546200 -0.853500 -134.822006 -12.988270 2.959364 4.195374 37.390354 2.683674 2.654278 -24.665262 12.032299 6.383614 -9.306197 0.686569 12.235510 23.253300 -3.450734 -1.622998 -14.893126 -6.367285 -1.650584 
1.450994 43.751305 -3.805391 -1.652740 -3.055370 -16.982300 -13.670100 0.283804 0.729242 17.519501 0.039008 0.339727 3.545890 -8.022320 4.198920 9.113190 0.543828 2.325370 2.000000 -2.000000 0.000000 -91.156998 2.734760 -144.955994 121.640999 -0.138003 0.134508 0.066127 -0.060210 -158.962997 -2.000000 2.000000 0.000000 88.278397 1.396860 -128.464996 -129.199005 0.134610 0.088628 1.545060 -0.860290 -134.373001 -13.180586 2.827364 4.073830 37.362282 2.675261 2.671524 -24.574621 11.995563 6.347020 -9.461620 0.536470 12.158293 23.285164 -3.440304 -1.640097 -14.840333 -6.331693 -1.660310 
1.508927 43.757225 -3.845349 -1.427710 -2.977590 -16.820499 -13.650600 0.280376 0.720101 17.568399 -0.009752 0.342304 3.660390 -8.301260 4.473010 9.210600 0.456013 2.455040 2.000000 -2.000000 0.000000 -91.361298 2.442860 -144.408997 121.661003 -0.137961 0.134482 0.066035 -0.059982 -158.875000 -2.000000 2.000000 0.000000 88.278397 1.396810 -128.434998 -129.561005 0.133992 0.088120 1.535050 -0.871839 -133.815994 -13.525881 2.753740 3.976099 37.333424 2.667116 2.669267 -24.430681 12.034512 6.305930 -9.793734 0.441610 12.075294 23.385002 -3.431947 -1.637521 -14.764202 -6.196931 -1.637785 
1.549323 43.761345 -3.894768 -1.241970 -3.026630 -16.624001 -13.563000 0.304638 0.674383 17.675800 -0.058520 0.325210 3.688700 -8.637070 4.904790 9.278690 0.358578 2.651690 2.000000 -2.000000 0.000000 -91.614502 2.111660 -143.977997 121.680000 -0.137918 0.134456 0.065953 -0.059779 -158.796997 -2.000000 2.000000 0.000000 88.258698 1.494320 -128.337006 -129.873001 0.133459 0.087677 1.525190 -0.883377 -133.287994 -13.782014 2.823389 3.837875 37.247875 2.631615 2.669567 -24.311228 12.002064 6.290815 -10.072547 0.493426 12.060565 23.500338 -3.393902 -1.668396 -14.679929 -5.962496 -1.617333 
